<svg width="0" height="0" class="hidden">
  <symbol fill="none" xmlns="http://www.w3.org/2000/svg" viewBox="0 0 18 16" id="alert">
    <path d="M17.0861 12.6816L10.5787 1.42086C9.87707 0.193047 8.12305 0.193047 7.40391 1.42086L0.914046 12.6816C0.21244 13.8919 1.08945 15.4179 2.49266 15.4179H15.4899C16.9107 15.4179 17.7877 13.8919 17.0861 12.6816ZM9.00006 4.22729C9.56135 4.22729 9.99985 4.68333 9.99985 5.22707V5.29724L9.66659 10.3137C9.64905 10.6645 9.35087 10.9452 9.00006 10.9452C8.64926 10.9452 8.35108 10.6645 8.33354 10.3137L8.00027 5.29724C7.96519 4.71841 8.42124 4.22729 9.00006 4.22729ZM9.00006 13.5937C8.42124 13.5937 7.94765 13.1201 7.94765 12.5413C7.94765 11.9625 8.42124 11.4889 9.00006 11.4889C9.57889 11.4889 10.0525 11.9625 10.0525 12.5413C10.0525 13.1201 9.57889 13.5937 9.00006 13.5937Z" fill="currentColor"></path>
  </symbol>
  <symbol fill="none" xmlns="http://www.w3.org/2000/svg" viewBox="0 0 12 17" id="apple-file">
    <path d="M8.02858 2.61153V0.666626H1.56208C0.791226 0.666626 0.166626 1.29168 0.166626 2.06208V15.2304C0.166626 16.0013 0.791226 16.6259 1.56208 16.6259H9.88753C10.6584 16.6259 11.283 16.0008 11.283 15.2304V3.92103H9.33808C8.61583 3.92103 8.02858 3.33333 8.02858 2.61153ZM8.91193 12.512H2.53768C2.47063 12.512 2.41663 12.458 2.41663 12.3909V11.9301C2.41663 11.8631 2.47108 11.8091 2.53768 11.8091H8.91193C8.97898 11.8091 9.03298 11.8635 9.03298 11.9301V12.3909C9.03298 12.458 8.97853 12.512 8.91193 12.512ZM8.91193 9.87408H2.53768C2.47063 9.87408 2.41663 9.81963 2.41663 9.75258V9.29223C2.41663 9.22518 2.47108 9.17118 2.53768 9.17118H8.91193C8.97898 9.17118 9.03298 9.22563 9.03298 9.29223V9.75258C9.03298 9.81963 8.97853 9.87408 8.91193 9.87408ZM8.91193 7.23663H2.53768C2.47063 7.23663 2.41663 7.18218 2.41663 7.11558V6.65478C2.41663 6.58773 2.47108 6.53373 2.53768 6.53373H8.91193C8.97898 6.53373 9.03298 6.58818 9.03298 6.65478V7.11558C9.03298 7.18263 8.97853 7.23663 8.91193 7.23663Z" fill="currentColor"></path>
  </symbol>
  <symbol fill="none" xmlns="http://www.w3.org/2000/svg" viewBox="0 0 16 16" id="arrow-cross">
    <path d="M14.2501 0.741699L15.4251 1.9167L11.6751 5.6667H14.6667V7.33337H8.83341V1.50003H10.5001V4.4917L14.2501 0.741699ZM15.4251 14.4167L14.2501 15.5917L10.5001 11.8417V14.8334H8.83341V9.00003H14.6667V10.6667H11.6751L15.4251 14.4167ZM1.75007 0.741699L5.50007 4.4917V1.50003H7.16674V7.33337H1.33341V5.6667H4.32507L0.575073 1.9167L1.75007 0.741699ZM0.575073 14.4167L4.32507 10.6667H1.33341V9.00003H7.16674V14.8334H5.50007V11.8417L1.75007 15.5917L0.575073 14.4167Z" fill="currentColor"></path>
    <path d="M14.2501 0.741699L15.4251 1.9167L11.6751 5.6667H14.6667V7.33337H8.83341V1.50003H10.5001V4.4917L14.2501 0.741699ZM15.4251 14.4167L14.2501 15.5917L10.5001 11.8417V14.8334H8.83341V9.00003H14.6667V10.6667H11.6751L15.4251 14.4167ZM1.75007 0.741699L5.50007 4.4917V1.50003H7.16674V7.33337H1.33341V5.6667H4.32507L0.575073 1.9167L1.75007 0.741699ZM0.575073 14.4167L4.32507 10.6667H1.33341V9.00003H7.16674V14.8334H5.50007V11.8417L1.75007 15.5917L0.575073 14.4167Z" fill="currentColor"></path>
    <path d="M14.2501 0.741699L15.4251 1.9167L11.6751 5.6667H14.6667V7.33337H8.83341V1.50003H10.5001V4.4917L14.2501 0.741699ZM15.4251 14.4167L14.2501 15.5917L10.5001 11.8417V14.8334H8.83341V9.00003H14.6667V10.6667H11.6751L15.4251 14.4167ZM1.75007 0.741699L5.50007 4.4917V1.50003H7.16674V7.33337H1.33341V5.6667H4.32507L0.575073 1.9167L1.75007 0.741699ZM0.575073 14.4167L4.32507 10.6667H1.33341V9.00003H7.16674V14.8334H5.50007V11.8417L1.75007 15.5917L0.575073 14.4167Z" fill="currentColor" ></path>
    <path d="M14.2501 0.741699L15.4251 1.9167L11.6751 5.6667H14.6667V7.33337H8.83341V1.50003H10.5001V4.4917L14.2501 0.741699ZM15.4251 14.4167L14.2501 15.5917L10.5001 11.8417V14.8334H8.83341V9.00003H14.6667V10.6667H11.6751L15.4251 14.4167ZM1.75007 0.741699L5.50007 4.4917V1.50003H7.16674V7.33337H1.33341V5.6667H4.32507L0.575073 1.9167L1.75007 0.741699ZM0.575073 14.4167L4.32507 10.6667H1.33341V9.00003H7.16674V14.8334H5.50007V11.8417L1.75007 15.5917L0.575073 14.4167Z" fill="currentColor" ></path>
    <path d="M14.2501 0.741699L15.4251 1.9167L11.6751 5.6667H14.6667V7.33337H8.83341V1.50003H10.5001V4.4917L14.2501 0.741699ZM15.4251 14.4167L14.2501 15.5917L10.5001 11.8417V14.8334H8.83341V9.00003H14.6667V10.6667H11.6751L15.4251 14.4167ZM1.75007 0.741699L5.50007 4.4917V1.50003H7.16674V7.33337H1.33341V5.6667H4.32507L0.575073 1.9167L1.75007 0.741699ZM0.575073 14.4167L4.32507 10.6667H1.33341V9.00003H7.16674V14.8334H5.50007V11.8417L1.75007 15.5917L0.575073 14.4167Z" fill="currentColor" ></path>
    <path d="M14.2501 0.741699L15.4251 1.9167L11.6751 5.6667H14.6667V7.33337H8.83341V1.50003H10.5001V4.4917L14.2501 0.741699ZM15.4251 14.4167L14.2501 15.5917L10.5001 11.8417V14.8334H8.83341V9.00003H14.6667V10.6667H11.6751L15.4251 14.4167ZM1.75007 0.741699L5.50007 4.4917V1.50003H7.16674V7.33337H1.33341V5.6667H4.32507L0.575073 1.9167L1.75007 0.741699ZM0.575073 14.4167L4.32507 10.6667H1.33341V9.00003H7.16674V14.8334H5.50007V11.8417L1.75007 15.5917L0.575073 14.4167Z" fill="currentColor" ></path>
    <path d="M14.2501 0.741699L15.4251 1.9167L11.6751 5.6667H14.6667V7.33337H8.83341V1.50003H10.5001V4.4917L14.2501 0.741699ZM15.4251 14.4167L14.2501 15.5917L10.5001 11.8417V14.8334H8.83341V9.00003H14.6667V10.6667H11.6751L15.4251 14.4167ZM1.75007 0.741699L5.50007 4.4917V1.50003H7.16674V7.33337H1.33341V5.6667H4.32507L0.575073 1.9167L1.75007 0.741699ZM0.575073 14.4167L4.32507 10.6667H1.33341V9.00003H7.16674V14.8334H5.50007V11.8417L1.75007 15.5917L0.575073 14.4167Z" fill="currentColor" ></path>
    <path d="M14.2501 0.741699L15.4251 1.9167L11.6751 5.6667H14.6667V7.33337H8.83341V1.50003H10.5001V4.4917L14.2501 0.741699ZM15.4251 14.4167L14.2501 15.5917L10.5001 11.8417V14.8334H8.83341V9.00003H14.6667V10.6667H11.6751L15.4251 14.4167ZM1.75007 0.741699L5.50007 4.4917V1.50003H7.16674V7.33337H1.33341V5.6667H4.32507L0.575073 1.9167L1.75007 0.741699ZM0.575073 14.4167L4.32507 10.6667H1.33341V9.00003H7.16674V14.8334H5.50007V11.8417L1.75007 15.5917L0.575073 14.4167Z" fill="currentColor" ></path>
    <path d="M14.2501 0.741699L15.4251 1.9167L11.6751 5.6667H14.6667V7.33337H8.83341V1.50003H10.5001V4.4917L14.2501 0.741699ZM15.4251 14.4167L14.2501 15.5917L10.5001 11.8417V14.8334H8.83341V9.00003H14.6667V10.6667H11.6751L15.4251 14.4167ZM1.75007 0.741699L5.50007 4.4917V1.50003H7.16674V7.33337H1.33341V5.6667H4.32507L0.575073 1.9167L1.75007 0.741699ZM0.575073 14.4167L4.32507 10.6667H1.33341V9.00003H7.16674V14.8334H5.50007V11.8417L1.75007 15.5917L0.575073 14.4167Z" fill="currentColor" ></path>
    <path d="M14.2501 0.741699L15.4251 1.9167L11.6751 5.6667H14.6667V7.33337H8.83341V1.50003H10.5001V4.4917L14.2501 0.741699ZM15.4251 14.4167L14.2501 15.5917L10.5001 11.8417V14.8334H8.83341V9.00003H14.6667V10.6667H11.6751L15.4251 14.4167ZM1.75007 0.741699L5.50007 4.4917V1.50003H7.16674V7.33337H1.33341V5.6667H4.32507L0.575073 1.9167L1.75007 0.741699ZM0.575073 14.4167L4.32507 10.6667H1.33341V9.00003H7.16674V14.8334H5.50007V11.8417L1.75007 15.5917L0.575073 14.4167Z" fill="currentColor" ></path>
    <path d="M14.2501 0.741699L15.4251 1.9167L11.6751 5.6667H14.6667V7.33337H8.83341V1.50003H10.5001V4.4917L14.2501 0.741699ZM15.4251 14.4167L14.2501 15.5917L10.5001 11.8417V14.8334H8.83341V9.00003H14.6667V10.6667H11.6751L15.4251 14.4167ZM1.75007 0.741699L5.50007 4.4917V1.50003H7.16674V7.33337H1.33341V5.6667H4.32507L0.575073 1.9167L1.75007 0.741699ZM0.575073 14.4167L4.32507 10.6667H1.33341V9.00003H7.16674V14.8334H5.50007V11.8417L1.75007 15.5917L0.575073 14.4167Z" fill="currentColor" ></path>
  </symbol>
  <symbol fill="none" xmlns="http://www.w3.org/2000/svg" viewBox="0 0 16 16" id="cuboid">
    <g clip-path="url(#clip0_5916_104)">
      <path d="M6.80116 0.66626L0.998657 6.46693H9.20649L15.009 0.66626H6.80116Z" fill="currentColor"></path>
      <path d="M9.5387 15.0069L15.3394 9.20625V0.998413L9.5387 6.79908V15.0069Z" fill="currentColor"></path>
      <path d="M9.07319 6.93457H0.669189V15.3331H9.07319V6.93457Z" fill="currentColor"></path>
    </g>
    <defs>
      <clipPath id="clip0_5916_104">
        <rect width="14.6703" height="14.6667" fill="white" transform="translate(0.666504 0.666626)"></rect>
      </clipPath>
    </defs>
  </symbol>
  <symbol fill="none" xmlns="http://www.w3.org/2000/svg" viewBox="0 0 16 16" id="dashboard">
    <path d="M8.83333 0.5V5.5H15.5V0.5M8.83333 15.5H15.5V7.16667H8.83333M0.5 15.5H7.16667V10.5H0.5M0.5 8.83333H7.16667V0.5H0.5V8.83333Z" fill="currentColor"></path>
  </symbol>
  <symbol fill="none" xmlns="http://www.w3.org/2000/svg" viewBox="0 0 18 18" id="plug">
    <path d="M16.8333 5.25004C17.5 5.91671 17.5 7.00004 16.8333 7.58337L14.5 9.91671L7.99996 3.41671L10.3333 1.08337C11 0.416707 12.0833 0.416707 12.6666 1.08337L14.1666 2.58337L16.6666 0.083374L17.8333 1.25004L15.3333 3.75004L16.8333 5.25004ZM12 10.0834L10.8333 8.91671L8.49996 11.25L6.74996 9.50004L9.08329 7.16671L7.91663 6.00004L5.58329 8.33337L4.33329 7.16671L1.99996 9.50004C1.33329 10.1667 1.33329 11.25 1.99996 11.8334L3.49996 13.3334L0.166626 16.6667L1.33329 17.8334L4.66663 14.5L6.16663 16C6.83329 16.6667 7.91663 16.6667 8.49996 16L10.8333 13.6667L9.66663 12.5L12 10.0834Z" fill="currentColor"></path>
  </symbol>
  <symbol fill="none" xmlns="http://www.w3.org/2000/svg" viewBox="0 0 18 18" id="weights">
    <path d="M0.666626 3.16663H7.33329V0.666626H8.99996V17.3333H7.33329V14H3.99996V11.5H7.33329V9.83329H2.33329V7.33329H7.33329V5.66663H0.666626V3.16663ZM10.6666 3.16663H13.1666V5.66663H10.6666V3.16663ZM10.6666 7.33329H14.8333V9.83329H10.6666V7.33329ZM10.6666 11.5H17.3333V14H10.6666V11.5Z" fill="currentColor"></path>
  </symbol>
  <symbol viewBox="0 0 17 18" fill="none" xmlns="http://www.w3.org/2000/svg" id="cog">
    <path d="M8.37523 12.0795C7.60168 12.0795 6.85982 11.7722 6.31284 11.2252C5.76586 10.6782 5.45857 9.93635 5.45857 9.1628C5.45857 8.38925 5.76586 7.64739 6.31284 7.10041C6.85982 6.55343 7.60168 6.24613 8.37523 6.24613C9.14878 6.24613 9.89065 6.55343 10.4376 7.10041C10.9846 7.64739 11.2919 8.38925 11.2919 9.1628C11.2919 9.93635 10.9846 10.6782 10.4376 11.2252C9.89065 11.7722 9.14878 12.0795 8.37523 12.0795ZM14.5669 9.97113C14.6002 9.70447 14.6252 9.4378 14.6252 9.1628C14.6252 8.8878 14.6002 8.6128 14.5669 8.32947L16.3252 6.97113C16.4836 6.84613 16.5252 6.62113 16.4252 6.4378L14.7586 3.55447C14.6586 3.37113 14.4336 3.29613 14.2502 3.37113L12.1752 4.20447C11.7419 3.87947 11.2919 3.59613 10.7669 3.3878L10.4586 1.17947C10.4252 0.979468 10.2502 0.829468 10.0419 0.829468H6.70857C6.50023 0.829468 6.32523 0.979468 6.2919 1.17947L5.98357 3.3878C5.45857 3.59613 5.00857 3.87947 4.57523 4.20447L2.50023 3.37113C2.3169 3.29613 2.0919 3.37113 1.9919 3.55447L0.325232 6.4378C0.216899 6.62113 0.266899 6.84613 0.425232 6.97113L2.18357 8.32947C2.15023 8.6128 2.12523 8.8878 2.12523 9.1628C2.12523 9.4378 2.15023 9.70447 2.18357 9.97113L0.425232 11.3545C0.266899 11.4795 0.216899 11.7045 0.325232 11.8878L1.9919 14.7711C2.0919 14.9545 2.3169 15.0211 2.50023 14.9545L4.57523 14.1128C5.00857 14.4461 5.45857 14.7295 5.98357 14.9378L6.2919 17.1461C6.32523 17.3461 6.50023 17.4961 6.70857 17.4961H10.0419C10.2502 17.4961 10.4252 17.3461 10.4586 17.1461L10.7669 14.9378C11.2919 14.7211 11.7419 14.4461 12.1752 14.1128L14.2502 14.9545C14.4336 15.0211 14.6586 14.9545 14.7586 14.7711L16.4252 11.8878C16.5252 11.7045 16.4836 11.4795 16.3252 11.3545L14.5669 9.97113Z" fill="currentColor"/>
  </symbol>
  <symbol fill="none" xmlns="http://www.w3.org/2000/svg" id="logout">
    <path d="M7.12126 0.250001H10.6291C11.0244 0.249987 11.3654 0.249976 11.6462 0.272931C11.9426 0.297169 12.2373 0.350683 12.521 0.495237C12.9436 0.710538 13.2888 1.05418 13.5049 1.47836C13.6494 1.762 13.7029 2.05679 13.7271 2.35297C13.75 2.63361 13.75 2.97423 13.75 3.36879V10.6316C13.75 11.0261 13.75 11.3666 13.7271 11.6471C13.7029 11.9433 13.6494 12.2378 13.5049 12.5214C13.289 12.9452 12.944 13.2894 12.521 13.5049C12.2375 13.6494 11.9429 13.7029 11.6468 13.7271C11.3662 13.75 11.0258 13.75 10.6312 13.75H7.11879C6.72423 13.75 6.38361 13.75 6.10297 13.7271C5.80679 13.7029 5.512 13.6494 5.22835 13.5049C4.80433 13.2889 4.46062 12.9439 4.24524 12.5212C4.10066 12.2374 4.04716 11.9426 4.02293 11.6461C3.99997 11.3653 3.99999 11.0243 4 10.6289L4 10.5625C4 10.1483 4.33579 9.8125 4.75 9.8125C5.16421 9.8125 5.5 10.1483 5.5 10.5625V10.6C5.5 11.0324 5.50058 11.3115 5.51794 11.524C5.53458 11.7276 5.56283 11.8031 5.58175 11.8402C5.65399 11.982 5.76887 12.0968 5.90934 12.1684C5.94625 12.1872 6.02166 12.2154 6.22514 12.2321C6.43735 12.2494 6.7161 12.25 7.14768 12.25H10.6023C11.0339 12.25 11.3125 12.2494 11.5245 12.2321C11.7277 12.2155 11.8031 12.1873 11.8401 12.1684C11.9816 12.0963 12.0967 11.9812 12.1684 11.8404C12.1873 11.8034 12.2155 11.7281 12.2321 11.5249C12.2494 11.3129 12.25 11.0343 12.25 10.6027V3.39768C12.25 2.9661 12.2494 2.68735 12.2321 2.47515C12.2154 2.27166 12.1872 2.19625 12.1684 2.15934C12.0969 2.01903 11.982 1.90407 11.8401 1.83175C11.8029 1.81281 11.7274 1.78458 11.5239 1.76794C11.3116 1.75059 11.0326 1.75 10.6001 1.75H7.15015C6.71774 1.75 6.43844 1.75058 6.22585 1.76795C6.02196 1.7846 5.94638 1.81287 5.90934 1.83175C5.76822 1.90365 5.65365 2.01822 5.58175 2.15934C5.56287 2.19638 5.5346 2.27196 5.51795 2.47585C5.50058 2.68844 5.5 2.96774 5.5 3.40015V3.43644C5.5 3.85066 5.16421 4.18644 4.75 4.18644C4.33579 4.18644 4 3.85066 4 3.43644L4 3.37125C3.99999 2.97588 3.99997 2.63474 4.02293 2.35374C4.04714 2.05721 4.10062 1.76218 4.24524 1.47836C4.46095 1.05499 4.80499 0.710952 5.22835 0.495237C5.51218 0.350619 5.80721 0.297146 6.10374 0.272927C6.38474 0.249976 6.72588 0.249987 7.12126 0.250001Z" fill="currentColor"/>
    <path d="M6.46967 4.21967C6.76256 3.92678 7.23744 3.92678 7.53033 4.21967L9.78033 6.46967C10.0732 6.76256 10.0732 7.23744 9.78033 7.53033L7.53033 9.78033C7.23744 10.0732 6.76256 10.0732 6.46967 9.78033C6.17678 9.48744 6.17678 9.01257 6.46967 8.71967L7.43934 7.75H1C0.585786 7.75 0.25 7.41422 0.25 7C0.25 6.58579 0.585786 6.25 1 6.25H7.43934L6.46967 5.28033C6.17678 4.98744 6.17678 4.51256 6.46967 4.21967Z" fill="currentColor"/>
  </symbol>
  <symbol viewBox="0 0 18 18" fill="none" xmlns="http://www.w3.org/2000/svg" id="message">
    <path d="M14.4166 6.66671C16.025 6.66671 17.3333 5.35837 17.3333 3.75004C17.3333 2.14171 16.025 0.833374 14.4166 0.833374C12.8083 0.833374 11.5 2.14171 11.5 3.75004C11.5 5.35837 12.8083 6.66671 14.4166 6.66671ZM14.4166 8.33337C14.8333 8.33337 15.25 8.27504 15.6666 8.15837V13.3334C15.6666 15.6334 13.8 17.5 11.5 17.5H4.83329C2.53329 17.5 0.666626 15.6334 0.666626 13.3334V6.66671C0.666626 4.36671 2.53329 2.50004 4.83329 2.50004H10.0083C9.89163 2.91671 9.83329 3.33337 9.83329 3.75004C9.83329 6.28337 11.8833 8.33337 14.4166 8.33337Z" fill="currentColor"/>
  </symbol>
  <symbol viewBox="0 0 13 10" fill="none" xmlns="http://www.w3.org/2000/svg" id="check">
    <path d="M11.5 1.25L4.625 8.125L1.5 5" stroke="currentColor" stroke-width="2" stroke-linecap="round" stroke-linejoin="round"/>
  </symbol>
  <symbol fill="none" xmlns="http://www.w3.org/2000/svg" id="server">
  <path d="M6.27252 6.1676H6.28346M6.27252 19.2926H6.28346M4.08502 1.7926H21.585C22.7931 1.7926 23.7725 2.77198 23.7725 3.9801V8.3551C23.7725 9.56323 22.7931 10.5426 21.585 10.5426H4.08502C2.8769 10.5426 1.89752 9.56323 1.89752 8.3551V3.9801C1.89752 2.77198 2.8769 1.7926 4.08502 1.7926ZM4.08502 14.9176H21.585C22.7931 14.9176 23.7725 15.897 23.7725 17.1051V21.4801C23.7725 22.6882 22.7931 23.6676 21.585 23.6676H4.08502C2.8769 23.6676 1.89752 22.6882 1.89752 21.4801V17.1051C1.89752 15.897 2.8769 14.9176 4.08502 14.9176Z" stroke="currentColor" stroke-width="2.1875" stroke-linecap="round" stroke-linejoin="round"/>
  </symbol>
  <symbol viewBox="0 0 25 25" fill="none" xmlns="http://www.w3.org/2000/svg" id="server2">
  <path d="M6.27252 6.32776H6.28346M6.27252 19.4528H6.28346M4.08502 1.95276H21.585C22.7931 1.95276 23.7725 2.93214 23.7725 4.14026V8.51526C23.7725 9.72338 22.7931 10.7028 21.585 10.7028H4.08502C2.8769 10.7028 1.89752 9.72338 1.89752 8.51526V4.14026C1.89752 2.93214 2.8769 1.95276 4.08502 1.95276ZM4.08502 15.0778H21.585C22.7931 15.0778 23.7725 16.0571 23.7725 17.2653V21.6403C23.7725 22.8484 22.7931 23.8278 21.585 23.8278H4.08502C2.8769 23.8278 1.89752 22.8484 1.89752 21.6403V17.2653C1.89752 16.0571 2.8769 15.0778 4.08502 15.0778Z" stroke="currentColor" stroke-width="2.1875" stroke-linecap="round" stroke-linejoin="round"/>
  </symbol>
  <symbol viewBox="0 0 8 14" fill="none" xmlns="http://www.w3.org/2000/svg" id="left-angle">
  <path d="M6.4 12.4L1 6.99998L6.4 1.59998" stroke="currentColor" stroke-width="1.8" stroke-linecap="round" stroke-linejoin="round"/>
  </symbol>

</svg>